<?xml version="1.0" encoding="UTF-8"?>
<svg version="1.1" xmlns="http://www.w3.org/2000/svg" width="500" height="500">
<path d="M0 0 C11.44444444 8.33333333 11.44444444 8.33333333 13 13 C13.06860191 16.32719247 12.99744895 19.64158312 12.9375 22.96875 C12.85106977 26.04754971 12.85106977 26.04754971 14 29 C12.68 29 11.36 29 10 29 C10 85.76 10 142.52 10 201 C12.64 201 15.28 201 18 201 C18.99 201.33 19.98 201.66 21 202 C21 182.86 21 163.72 21 144 C19.02 144 17.04 144 15 144 C15.33 143.01 15.66 142.02 16 141 C16.66 141 17.32 141 18 141 C18.24806293 136.1823911 18.24806293 136.1823911 16.9375 131.625 C15.50526148 127.61473214 16.02494036 124.09670579 17 120 C19.4892139 114.8141377 23.33765776 111.94455122 27.87890625 108.61328125 C29.75863009 107.18358337 31.38047929 105.71265609 33 104 C35 105 37 106 39 107 C39 107.66 39 108.32 39 109 C39.556875 109.2475 40.11375 109.495 40.6875 109.75 C45.78242669 112.50401443 49.39616025 115.79232049 52 121 C52.50479563 125.36788438 52.32816874 129.52324065 51.375 133.8125 C50.87970537 136.70171866 51.90413801 138.32883641 53 141 C52.625 143.3125 52.625 143.3125 52 145 C50.68 144.67 49.36 144.34 48 144 C48 164.13 48 184.26 48 205 C50.31 205.33 52.62 205.66 55 206 C55.33 204.35 55.66 202.7 56 201 C68.35191641 200.9768675 80.7038277 200.95908026 93.05576134 200.94818783 C98.79076272 200.942961 104.52574932 200.93586695 110.26074219 200.92456055 C115.79148123 200.91372461 121.32220603 200.90772165 126.85295486 200.90512276 C128.96694793 200.90326979 131.08094019 200.89965162 133.19492722 200.89426994 C136.14738422 200.88705017 139.09978174 200.88600946 142.05224609 200.88647461 C142.9333757 200.88287933 143.81450531 200.87928406 144.72233582 200.87557983 C150.77189568 200.88594784 150.77189568 200.88594784 153 202 C153 205.63 153 209.26 153 213 C154.98 212.34 156.96 211.68 159 211 C159.33 195.82 159.66 180.64 160 165 C158.68 164.67 157.36 164.34 156 164 C156 163.01 156 162.02 156 161 C156.66 161 157.32 161 158 161 C157.835 160.34 157.67 159.68 157.5 159 C156.61041563 153.66249378 156.13669988 149.72660023 158.5625 144.875 C164.33634621 138.06482242 164.33634621 138.06482242 168 136 C171.81747778 136.1858407 173.95929246 138.44378302 176.6875 140.9375 C177.47511719 141.64777344 178.26273438 142.35804688 179.07421875 143.08984375 C181.32839462 145.32573016 181.97952437 146.2168072 182.0625 149.390625 C182.0315625 150.80601562 182.0315625 150.80601562 182 152.25 C181.95749087 156.29368098 182.14138298 160.02889628 183 164 C181.68 164.33 180.36 164.66 179 165 C179.33 176.55 179.66 188.1 180 200 C181.32 198.68 182.64 197.36 184 196 C184.66 196 185.32 196 186 196 C186.66 194.68 187.32 193.36 188 192 C188.66 192 189.32 192 190 192 C190.268125 191.236875 190.53625 190.47375 190.8125 189.6875 C191.95134505 187.11011382 192.81416671 185.73045136 195 184 C195.66 184 196.32 184 197 184 C195.4404175 197.1284258 191.16399764 207.6014599 183 218 C182.443125 218.71027344 181.88625 219.42054688 181.3125 220.15234375 C169.81946845 234.01315263 153.63830535 240.955494 136 243 C112.17998042 244.69277342 91.06444203 240.56288237 69.19165039 231.34228516 C63.94064081 229.13391289 58.65901258 227.00292132 53.375 224.875 C51.79332031 224.23111328 51.79332031 224.23111328 50.1796875 223.57421875 C43.86320959 221.03355622 37.56194818 218.81380284 31 217 C30.32743164 216.81147461 29.65486328 216.62294922 28.96191406 216.42871094 C24.65416642 215.23739438 20.32731822 214.11765173 16 213 C15.16210938 212.78085937 14.32421875 212.56171875 13.4609375 212.3359375 C0.25645495 209.11884539 -13.51360822 209.88299313 -27 210 C-27 209.01 -27 208.02 -27 207 C-25.66809481 206.53753292 -24.3343693 206.08030845 -23 205.625 C-22.2575 205.36976563 -21.515 205.11453125 -20.75 204.8515625 C-17.20864335 203.75494922 -13.5965693 202.89914232 -10 202 C-9.67 144.91 -9.34 87.82 -9 29 C-10.32 29 -11.64 29 -13 29 C-12.67 28.01 -12.34 27.02 -12 26 C-12.0086094 22.73703915 -12.13039632 19.4869177 -12.2578125 16.2265625 C-11.78794934 10.34615385 -8.64423826 7.39145011 -4.3125 3.6875 C-3.50425781 2.99011719 -2.69601563 2.29273437 -1.86328125 1.57421875 C-1.24839844 1.05472656 -0.63351563 0.53523438 0 0 Z M-1 34 C-3.18331689 35.76136355 -3.18331689 35.76136355 -3.1953125 37.9453125 C-3.16050781 39.02425781 -3.16050781 39.02425781 -3.125 40.125 C-3.08375 41.40375 -3.0425 42.6825 -3 44 C-0.69 44 1.62 44 4 44 C4.04125 42.72125 4.0825 41.4425 4.125 40.125 C4.15980469 39.04605469 4.15980469 39.04605469 4.1953125 37.9453125 C4.18331689 35.76136355 4.18331689 35.76136355 2 34 C1.01 34 0.02 34 -1 34 Z M30 152 C28.95023036 155.14930893 28.89868405 157.38814456 28.9375 160.6875 C28.958125 162.440625 28.97875 164.19375 29 166 C32.63 166 36.26 166 40 166 C40.04125 164.4325 40.0825 162.865 40.125 161.25 C40.14820313 160.36828125 40.17140625 159.4865625 40.1953125 158.578125 C39.99139502 155.8864142 39.36551721 154.30095026 38 152 C35.36 152 32.72 152 30 152 Z M169 169 C168.01 169.66 167.02 170.32 166 171 C165.63702064 172.97747122 165.63702064 172.97747122 165.8125 175.125 C165.874375 176.40375 165.93625 177.6825 166 179 C168.31 179 170.62 179 173 179 C173 176.36 173 173.72 173 171 C171.68 170.34 170.36 169.68 169 169 Z " fill="#0C0C0C" transform="translate(162,125)"/>
<path d="M0 0 C0.99 0.33 1.98 0.66 3 1 C3 1.99 3 2.98 3 4 C3.556875 4.226875 4.11375 4.45375 4.6875 4.6875 C7.66159588 6.37550036 9.72008865 8.46676517 12 11 C12 11.66 12 12.32 12 13 C12.598125 13.103125 13.19625 13.20625 13.8125 13.3125 C16.30869017 14.09701691 17.25731865 15.09889308 19 17 C19.66 17.33 20.32 17.66 21 18 C21 18.66 21 19.32 21 20 C21.56203125 20.2578125 22.1240625 20.515625 22.703125 20.78125 C25.26704579 22.14169777 27.45226365 23.72788962 29.75 25.5 C30.54921875 26.1084375 31.3484375 26.716875 32.171875 27.34375 C32.77515625 27.8903125 33.3784375 28.436875 34 29 C34 29.66 34 30.32 34 31 C34.66 31 35.32 31 36 31 C42.94824176 38.58145591 47.07307682 48.51159157 47.375 58.8125 C46.89888717 67.5253648 43.82457263 75.76314105 39 83 C40.98 83.495 40.98 83.495 43 84 C43 87.63 43 91.26 43 95 C32.21276246 95.15365972 21.42546508 95.30184149 10.6380558 95.4429636 C5.62943009 95.50866059 0.62084515 95.57626875 -4.38769531 95.64819336 C-9.21812453 95.71749075 -14.04859631 95.78183492 -18.87913895 95.84269524 C-20.72520991 95.86683424 -22.57125813 95.89278031 -24.41727829 95.92053413 C-26.99608552 95.95900105 -29.57489768 95.99113352 -32.15380859 96.02172852 C-32.92272934 96.03467453 -33.69165009 96.04762054 -34.48387146 96.06095886 C-39.77189568 96.11405216 -39.77189568 96.11405216 -42 95 C-42 91.7 -42 88.4 -42 85 C-39.525 84.01 -39.525 84.01 -37 83 C-37.32613281 82.55011719 -37.65226563 82.10023438 -37.98828125 81.63671875 C-43.58243604 73.40225491 -46.2952942 63.9548453 -45 54 C-42.23136255 41.04840788 -35.93898038 32.58727904 -26 24 C-25.34 24 -24.68 24 -24 24 C-24 23.34 -24 22.68 -24 22 C-23.360625 21.896875 -22.72125 21.79375 -22.0625 21.6875 C-21.381875 21.460625 -20.70125 21.23375 -20 21 C-19.67 20.01 -19.34 19.02 -19 18 C-17.66666667 17.66666667 -16.33333333 17.33333333 -15 17 C-14.67 16.01 -14.34 15.02 -14 14 C-8.53488372 9 -8.53488372 9 -6 9 C-5.7525 8.443125 -5.505 7.88625 -5.25 7.3125 C-3.78393985 4.60028873 -1.97010529 2.36412635 0 0 Z " fill="#070707" transform="translate(265,228)"/>
<path d="M0 0 C3 1 3 1 4.28125 3.16015625 C13.68202957 25.54726915 13.47151345 50.06495922 4.625 72.625 C2.27706313 77.80640389 -0.71614465 82.37404725 -4 87 C-4.556875 87.928125 -5.11375 88.85625 -5.6875 89.8125 C-7.0064618 92.01076966 -8.33658824 94.04729924 -10 96 C-10.66 96 -11.32 96 -12 96 C-12.2475 96.61875 -12.495 97.2375 -12.75 97.875 C-14.22770762 100.38710296 -15.43955177 100.76107344 -18 102 C-18.33 102.99 -18.66 103.98 -19 105 C-39.79502136 123.87033126 -67.538676 128.05302302 -94.51367188 127.1953125 C-109.23464783 126.37060796 -123.2703244 122.15560481 -137 117 C-138.051875 116.61070312 -139.10375 116.22140625 -140.1875 115.8203125 C-149.1490764 112.28925658 -157.55113876 107.59481908 -166 103 C-166 102.34 -166 101.68 -166 101 C-167.65 100.67 -169.3 100.34 -171 100 C-171 99.34 -171 98.68 -171 98 C-171.84175781 97.77957031 -172.68351562 97.55914062 -173.55078125 97.33203125 C-177.73281257 95.7169999 -180.69511129 93.44522816 -184.1875 90.6875 C-185.60330367 89.60393604 -187.02136969 88.5233232 -188.44140625 87.4453125 C-189.18277832 86.88231445 -189.92415039 86.31931641 -190.68798828 85.73925781 C-207.7509139 72.90332517 -221.29704766 65.28902237 -243 65 C-243.33 64.34 -243.66 63.68 -244 63 C-220.90904311 54.45532873 -196.56856643 63.2944872 -175.30859375 72.96875 C-172.55921275 74.19689989 -169.78256661 75.34907711 -167 76.5 C-160.58348914 79.15990565 -154.1980976 81.85944608 -148 85 C-148 85.66 -148 86.32 -148 87 C-147.360625 86.9175 -146.72125 86.835 -146.0625 86.75 C-142.41374305 87.04785771 -139.9450266 88.24259599 -136.66015625 89.7890625 C-131.54653745 92.11684786 -126.25601751 94.02046094 -121 96 C-120.0553186 96.37644653 -120.0553186 96.37644653 -119.09155273 96.76049805 C-97.47517178 105.23601394 -71.39536292 104.28988677 -50.109375 95.32910156 C-40.88384559 91.26807919 -33.01101221 86.10536234 -25 80 C-24.1440625 79.35417969 -23.288125 78.70835937 -22.40625 78.04296875 C-19.98266454 75.98528174 -18.16359914 73.9067086 -16.25 71.375 C-15.65703125 70.59898437 -15.0640625 69.82296875 -14.453125 69.0234375 C-12.96829212 67.06865323 -12.96829212 67.06865323 -12 65 C-11.34 65 -10.68 65 -10 65 C-9.72929687 64.28328125 -9.45859375 63.5665625 -9.1796875 62.828125 C-8.00135464 60.00324756 -6.60219201 57.42884561 -5.125 54.75 C2.16995581 40.16008838 4.50367524 23.01089693 0.4375 7.11328125 C-0.06217565 4.69966943 -0.06887775 2.45807466 0 0 Z " fill="#0F0F0F" transform="translate(367,279)"/>
<path d="M0 0 C2 1 4 2 6 3 C6 3.66 6 4.32 6 5 C6.556875 5.2475 7.11375 5.495 7.6875 5.75 C12.78242669 8.50401443 16.39616025 11.79232049 19 17 C19.59869522 22.1803767 19.01596917 26.92015415 18 32 C18.495 34.475 18.495 34.475 19 37 C7.78 37 -3.44 37 -15 37 C-15 34.69 -15 32.38 -15 30 C-15.5259375 28.824375 -15.5259375 28.824375 -16.0625 27.625 C-17.49473852 23.61473214 -16.97505964 20.09670579 -16 16 C-13.5107861 10.8141377 -9.66234224 7.94455122 -5.12109375 4.61328125 C-3.24136991 3.18358337 -1.61952071 1.71265609 0 0 Z " fill="#171717" transform="translate(195,229)"/>
<path d="M0 0 C2.72887466 1.19227669 4.56648172 2.8371945 6.76171875 4.84375 C7.54933594 5.55402344 8.33695312 6.26429688 9.1484375 6.99609375 C11.40261337 9.23198016 12.05374312 10.1230572 12.13671875 13.296875 C12.11609375 14.24046875 12.09546875 15.1840625 12.07421875 16.15625 C12.03170962 20.19993098 12.21560173 23.93514628 13.07421875 27.90625 C11.75421875 28.23625 10.43421875 28.56625 9.07421875 28.90625 C9.56921875 47.22125 9.56921875 47.22125 10.07421875 65.90625 C9.41421875 65.90625 8.75421875 65.90625 8.07421875 65.90625 C8.07421875 53.03625 8.07421875 40.16625 8.07421875 26.90625 C2.79421875 26.57625 -2.48578125 26.24625 -7.92578125 25.90625 C-8.25578125 26.89625 -8.58578125 27.88625 -8.92578125 28.90625 C-10.57578125 28.57625 -12.22578125 28.24625 -13.92578125 27.90625 C-13.92578125 26.91625 -13.92578125 25.92625 -13.92578125 24.90625 C-13.26578125 24.90625 -12.60578125 24.90625 -11.92578125 24.90625 C-12.09078125 24.24625 -12.25578125 23.58625 -12.42578125 22.90625 C-13.31536562 17.56874378 -13.78908137 13.63285023 -11.36328125 8.78125 C-3.76299646 -0.18318847 -3.76299646 -0.18318847 0 0 Z " fill="#0E0E0E" transform="translate(331.92578125,261.09375)"/>
<path d="M0 0 C1.65 0.33 3.3 0.66 5 1 C5.33 59.08 5.66 117.16 6 177 C3.69 177 1.38 177 -1 177 C0.98 176.01 0.98 176.01 3 175 C3.33 117.91 3.66 60.82 4 2 C2.68 2 1.36 2 0 2 C0 1.34 0 0.68 0 0 Z " fill="#484848" transform="translate(149,152)"/>
<path d="M0 0 C0.33 0.99 0.66 1.98 1 3 C0.01 3.33 -0.98 3.66 -2 4 C-2.66 3.67 -3.32 3.34 -4 3 C-4 23.13 -4 43.26 -4 64 C-1.36 64 1.28 64 4 64 C4 64.66 4 65.32 4 66 C2.52093108 66.02689216 1.04172517 66.04634621 -0.4375 66.0625 C-1.67306641 66.07990234 -1.67306641 66.07990234 -2.93359375 66.09765625 C-5 66 -5 66 -6 65 C-6.0940067 63.03630847 -6.11743381 61.06920801 -6.11352539 59.10327148 C-6.11344986 57.84203964 -6.11337433 56.5808078 -6.11329651 55.28135681 C-6.1081891 53.89460206 -6.10297309 52.50784771 -6.09765625 51.12109375 C-6.09579201 49.71004791 -6.09436814 48.29900143 -6.09336853 46.88795471 C-6.08954379 43.16759465 -6.0797139 39.4472734 -6.06866455 35.72692871 C-6.05844948 31.93319219 -6.05387071 28.13944942 -6.04882812 24.34570312 C-6.03809158 16.89711769 -6.0210157 9.44856428 -6 2 C-4.02 2 -2.04 2 0 2 C0 1.34 0 0.68 0 0 Z " fill="#767676" transform="translate(214,266)"/>
<path d="M0 0 C0.33 0 0.66 0 1 0 C1.33 4.29 1.66 8.58 2 13 C9.26 13 16.52 13 24 13 C24.33 12.01 24.66 11.02 25 10 C25.33 11.98 25.66 13.96 26 16 C24.68 16.33 23.36 16.66 22 17 C22.495 35.315 22.495 35.315 23 54 C22.34 54 21.68 54 21 54 C21 41.13 21 28.26 21 15 C15.72 14.67 10.44 14.34 5 14 C4.67 14.99 4.34 15.98 4 17 C2.35 16.67 0.7 16.34 -1 16 C-1 15.01 -1 14.02 -1 13 C-0.34 13 0.32 13 1 13 C0.835 12.34 0.67 11.68 0.5 11 C-0.12183299 7.26900206 -0.06408926 3.78126622 0 0 Z " fill="#6A6A6A" transform="translate(319,273)"/>
<path d="M0 0 C-0.33 0.33 -0.66 0.66 -1 1 C-0.2886792 1.08040527 0.4226416 1.16081055 1.15551758 1.24365234 C4.37553553 1.61239082 7.59396492 1.99354399 10.8125 2.375 C12.49182617 2.56449219 12.49182617 2.56449219 14.20507812 2.7578125 C15.27822266 2.88671875 16.35136719 3.015625 17.45703125 3.1484375 C18.9416687 3.32125244 18.9416687 3.32125244 20.45629883 3.49755859 C23 4 23 4 26 6 C25.02804688 5.9278125 24.05609375 5.855625 23.0546875 5.78125 C11.02953529 4.95136805 -0.95008346 4.89071514 -13 5 C-13 4.01 -13 3.02 -13 2 C-11.5882217 1.46605821 -10.17029756 0.94834896 -8.75 0.4375 C-7.96109375 0.14746094 -7.1721875 -0.14257812 -6.359375 -0.44140625 C-3.80896548 -1.04522837 -2.44677771 -0.8473932 0 0 Z " fill="#5F5F5F" transform="translate(148,330)"/>
<path d="M0 0 C0.33 0 0.66 0 1 0 C1.33 26.73 1.66 53.46 2 81 C-0.31 81 -2.62 81 -5 81 C-3.02 80.01 -3.02 80.01 -1 79 C-0.67 52.93 -0.34 26.86 0 0 Z " fill="#303030" transform="translate(153,248)"/>
<path d="M0 0 C-0.28168297 1.95979427 -0.57566717 3.91782378 -0.875 5.875 C-1.03742188 6.96554687 -1.19984375 8.05609375 -1.3671875 9.1796875 C-2 12 -2 12 -4 14 C-4.66 12.68 -5.32 11.36 -6 10 C-7.65 10.66 -9.3 11.32 -11 12 C-10.34 10.68 -9.68 9.36 -9 8 C-8.34 8 -7.68 8 -7 8 C-6.731875 7.236875 -6.46375 6.47375 -6.1875 5.6875 C-4.80876015 2.56719402 -3.66285015 0 0 0 Z " fill="#676767" transform="translate(359,309)"/>
<path d="M0 0 C0.33 0 0.66 0 1 0 C1.33 4.29 1.66 8.58 2 13 C8.27 13 14.54 13 21 13 C21 13.33 21 13.66 21 14 C15.72 14 10.44 14 5 14 C4.67 14.99 4.34 15.98 4 17 C2.35 16.67 0.7 16.34 -1 16 C-1 15.01 -1 14.02 -1 13 C-0.34 13 0.32 13 1 13 C0.835 12.34 0.67 11.68 0.5 11 C-0.12183299 7.26900206 -0.06408926 3.78126622 0 0 Z " fill="#4C4C4C" transform="translate(319,273)"/>
<path d="M0 0 C0.66 1.32 1.32 2.64 2 4 C-0.3125 6.0625 -0.3125 6.0625 -3 8 C-3.99 7.67 -4.98 7.34 -6 7 C-4.02 4.69 -2.04 2.38 0 0 Z " fill="#383838" transform="translate(353,348)"/>
<path d="M0 0 C0.33 0.66 0.66 1.32 1 2 C-0.13304992 5.39914975 -1.12518475 6.05254451 -4 8 C-4.99 7.34 -5.98 6.68 -7 6 C-4.69 4.02 -2.38 2.04 0 0 Z " fill="#474747" transform="translate(343,358)"/>
<path d="M0 0 C-2.34914492 2.34914492 -3.95679446 2.73140357 -7.125 3.625 C-8.49011719 4.01558594 -8.49011719 4.01558594 -9.8828125 4.4140625 C-10.58148438 4.60742188 -11.28015625 4.80078125 -12 5 C-12 4.34 -12 3.68 -12 3 C-8.02806853 -0.12940055 -4.95769796 -0.29162929 0 0 Z " fill="#505050" transform="translate(328,396)"/>
<path d="M0 0 C1.66842534 0.32441604 3.33480481 0.65939189 5 1 C5.70125 1.0825 6.4025 1.165 7.125 1.25 C9.92933031 2.37173213 10.66319435 4.39322899 12 7 C7.69235185 5.43358249 3.93828536 3.31663844 0 1 C0 0.67 0 0.34 0 0 Z " fill="#6A6A6A" transform="translate(152,348)"/>
<path d="M0 0 C0 0.66 0 1.32 0 2 C2.31 2 4.62 2 7 2 C7 2.33 7 2.66 7 3 C3.04 3 -0.92 3 -5 3 C-5.33 2.34 -5.66 1.68 -6 1 C-3 0 -3 0 0 0 Z " fill="#929292" transform="translate(129,341)"/>
<path d="M0 0 C4.3177458 0.50797009 8.03302114 1.19682779 12 3 C12 3.33 12 3.66 12 4 C7.12335991 4.34833144 4.22949995 3.41685712 0 1 C0 0.67 0 0.34 0 0 Z " fill="#606060" transform="translate(242,375)"/>
<path d="M0 0 C0.66 0.33 1.32 0.66 2 1 C-0.97 3.475 -0.97 3.475 -4 6 C-5.32 5.34 -6.64 4.68 -8 4 C-6.71349294 3.30289269 -5.42059335 2.61757124 -4.125 1.9375 C-3.40570313 1.55464844 -2.68640625 1.17179687 -1.9453125 0.77734375 C-1.30335938 0.52082031 -0.66140625 0.26429688 0 0 Z " fill="#555555" transform="translate(328,369)"/>
<path d="M0 0 C1.32 0 2.64 0 4 0 C4 0.99 4 1.98 4 3 C3.05125 3.309375 2.1025 3.61875 1.125 3.9375 C-1.86080408 4.87394742 -1.86080408 4.87394742 -4 6 C-3.34 4.68 -2.68 3.36 -2 2 C-1.34 2 -0.68 2 0 2 C0 1.34 0 0.68 0 0 Z " fill="#474747" transform="translate(352,315)"/>
<path d="M0 0 C0.99 0.33 1.98 0.66 3 1 C3.875 2.875 3.875 2.875 4 5 C2.5625 6.75 2.5625 6.75 1 8 C0.67 5.36 0.34 2.72 0 0 Z " fill="#848484" transform="translate(367,279)"/>
<path d="M0 0 C0 3.51716303 -0.82445585 4.37121748 -3 7 C-4.32 6.67 -5.64 6.34 -7 6 C-4.69 4.02 -2.38 2.04 0 0 Z " fill="#8C8C8C" transform="translate(257,237)"/>
</svg>
